<?xml version="1.0" encoding="UTF-8" standalone="no"?>
<!-- Created with Inkscape (http://www.inkscape.org/) -->

<svg
   width="400"
   height="250"
   viewBox="0 0 105.83333 66.145848"
   version="1.1"
   id="svg1"
   xml:space="preserve"
   inkscape:version="1.4.4 (dcaf3e7, 2026-05-05)"
   sodipodi:docname="logo.svg"
   xmlns:inkscape="http://www.inkscape.org/namespaces/inkscape"
   xmlns:sodipodi="http://sodipodi.sourceforge.net/DTD/sodipodi-0.dtd"
   xmlns:xlink="http://www.w3.org/1999/xlink"
   xmlns="http://www.w3.org/2000/svg"
   xmlns:svg="http://www.w3.org/2000/svg"><sodipodi:namedview
     id="namedview1"
     pagecolor="#ffbd59"
     bordercolor="#000000"
     borderopacity="0.25"
     inkscape:showpageshadow="2"
     inkscape:pageopacity="0.0"
     inkscape:pagecheckerboard="0"
     inkscape:deskcolor="#d1d1d1"
     inkscape:document-units="mm"
     inkscape:zoom="2.0535659"
     inkscape:cx="310.92258"
     inkscape:cy="152.66128"
     inkscape:window-width="1920"
     inkscape:window-height="1017"
     inkscape:window-x="-8"
     inkscape:window-y="-8"
     inkscape:window-maximized="1"
     inkscape:current-layer="layer1" /><defs
     id="defs1"><linearGradient
       id="linearGradient12"
       inkscape:collect="always"><stop
         style="stop-color:#c87137;stop-opacity:1;"
         offset="0.84272999"
         id="stop12" /><stop
         style="stop-color:#c87137;stop-opacity:0;"
         offset="1"
         id="stop13" /></linearGradient><rect
       x="71.620888"
       y="112.94063"
       width="663.87048"
       height="144.61909"
       id="rect1" /><radialGradient
       inkscape:collect="always"
       xlink:href="#linearGradient12"
       id="radialGradient13"
       cx="129.56976"
       cy="53.511875"
       fx="129.56976"
       fy="53.511875"
       r="16.207781"
       gradientTransform="matrix(1.0556453,0,0,0.29239448,-54.494565,27.493613)"
       gradientUnits="userSpaceOnUse" /></defs><g
     inkscape:label="Warstwa 1"
     inkscape:groupmode="layer"
     id="layer1"><path
       style="display:inline;fill:url(#radialGradient13);stroke-width:0.290174"
       id="path11"
       d="m 70.262765,42.694515 c 1.231431,0.228763 2.462197,0.471495 3.712398,0.54788 0.475895,0.02909 0.95292,0.02988 1.429386,0.0448 2.733784,-9.05e-4 5.467313,-0.04866 8.201012,-0.06813 1.5816,-0.03704 3.163632,-0.03713 4.745495,-0.04779 1.406933,-0.0168 2.814858,-0.02429 4.216744,0.118256 0.799693,0.08747 1.592388,0.220935 2.392388,0.305809 0.546117,0.0589 1.093849,0.07303 1.642151,0.07415 0.119921,9.05e-4 0.34072,-0.01078 0.462573,0.03692 0.05531,0.02165 0.198525,0.136067 0.14721,0.105015 -1.166014,-0.705536 -2.352094,-1.374667 -3.491748,-2.128728 -0.04074,-0.02698 0.08762,-0.08039 0.07696,-0.130706 -0.0074,-0.03632 -0.06366,0.02897 -0.09543,0.04348 -0.706427,0.378625 -1.489769,0.50406 -2.265678,0.588105 -0.598719,0.05335 -1.199825,0.04364 -1.799938,0.0497 -0.809532,0.01302 -1.619213,0.0084 -2.428819,0.01056 -1.2466,-0.03105 -2.487659,0.07111 -3.730386,0.156861 -1.590457,0.08142 -3.179234,0.195358 -4.770799,0.249333 -1.070731,0.02921 -2.141978,0.04018 -3.213005,0.02988 -0.781356,0.0306 -1.559251,-0.02716 -2.338233,-0.08092 -0.793169,-0.03277 -1.584966,-0.05076 -2.372024,-0.16976 -0.589968,-0.09968 -1.197587,-0.154546 -1.767213,-0.355696 -0.685146,-0.188368 -1.356462,-0.430989 -2.035917,-0.642021 -0.131249,-0.04897 -0.402096,-0.142367 -0.535371,-0.217984 -0.0569,-0.03227 -0.21494,-0.151842 -0.159118,-0.117466 1.150633,0.708697 2.296789,1.425822 3.444107,2.140752 0.02998,0.01868 -0.05742,-0.0522 -0.09216,-0.05202 -0.02417,1.14e-4 -0.03568,0.03515 -0.05353,0.05272 0.577944,-0.263111 1.209115,-0.319611 1.827669,-0.386683 1.031672,-0.138295 2.070269,-0.190514 3.108655,-0.222328 0.832196,-0.01923 1.6666,-0.02384 2.495988,-0.11019 0.09585,-0.01002 1.347869,-0.178965 1.44976,-0.192657 1.286209,-0.18544 2.573864,-0.33531 3.870048,-0.405199 0.749604,-0.04895 1.501592,-0.012 2.250752,-0.06876 0.398507,-0.0302 0.795893,-0.07573 1.194019,-0.111433 1.200956,-0.123401 2.402248,-0.247167 3.605156,-0.347059 1.078141,-0.0929 2.155764,-0.175907 3.236851,-0.217003 0.885697,-0.0355 1.7717,-0.02396 2.657619,-0.01254 0.326004,0.03012 0.661224,-0.02521 0.986574,0.01387 0.0532,0.0064 0.104192,0.02665 0.156352,0.03997 -1.169349,-0.693866 -2.338698,-1.387726 -3.508058,-2.081587 0.03642,0.01128 0.07949,0.0087 0.109334,0.03385 0.249607,0.210438 -0.234882,0.792868 -0.364166,0.932663 -0.357104,0.270699 -0.662608,0.296877 -1.091368,0.257222 -0.434514,-0.04019 -0.63895,-0.08231 -1.080475,-0.1547 -1.268473,-0.212313 -2.545108,-0.339679 -3.826946,-0.39885 0.427727,0.256556 -1.216536,-0.253679 -0.966242,-0.03459 1.129181,0.988432 2.304896,1.923666 3.545764,2.741355 0.191821,0.126398 0.448797,0.02671 0.673249,0.03882 1.32399,0.07141 0.786909,0.04862 2.216031,0.0719 1.135231,0.03006 2.268307,-0.07268 3.396624,-0.194445 0.02153,-0.0024 1.07699,-0.119519 1.237247,-0.171971 0.07389,-0.02418 0.127997,-0.09315 0.191991,-0.139723 -1.203087,-0.875035 -2.367348,-1.815736 -3.609273,-2.625106 -0.114242,-0.07445 -0.266762,0.01462 -0.400195,0.01208 -0.176409,-0.0033 -0.352385,-0.01969 -0.528583,-0.02964 -0.635445,-0.03585 -1.270522,-0.06774 -1.906452,-0.09209 -0.96391,0.0038 -1.941596,-0.14081 -2.902361,0.0059 -0.189699,0.02897 -0.375894,0.0802 -0.56384,0.120297 -0.200067,0.05714 -0.401451,0.109177 -0.600209,0.171426 -0.665774,0.20852 -1.319916,0.453692 -1.991168,0.643428 -0.663252,0.18747 -0.721598,0.186674 -1.396144,0.325526 -1.911182,0.345557 -3.850276,0.369747 -5.781094,0.453212 -1.334357,0.127889 -2.667172,0.272882 -4.000442,0.412743 -0.889845,0.08021 -1.781833,0.112925 -2.668185,0.233951 -0.730507,0.09317 -1.414227,0.30766 -2.06765,0.668412 -0.360049,0.20679 -0.64956,0.534868 -1.010453,0.739569 -0.177011,0.100409 -0.240667,0.100638 -0.43822,0.149168 -0.431748,0.02222 -0.852676,-0.08491 -1.278777,-0.13187 -0.07031,-0.0077 -0.152129,-0.05298 -0.211573,-0.01185 -0.09005,0.06235 -0.121831,0.189866 -0.182742,0.2848 0.0189,0.130224 -0.04497,0.317838 0.0568,0.390671 0.775287,0.554721 3.276954,2.187495 4.786285,2.905385 0.480182,0.228393 0.781949,0.329973 1.278851,0.517236 1.074847,0.356115 2.189979,0.578078 3.314262,0.618498 0.419555,-0.04274 1.164102,-0.328953 0.961122,-0.965554 -0.04444,-0.139219 -0.169145,-0.231042 -0.253713,-0.346566 -1.034122,-0.647879 -2.800226,-2.03605 -4.316312,-2.613624 -0.584954,-0.222843 -1.191096,-0.38738 -1.794154,-0.541064 -0.09701,-0.02837 -0.372695,-0.148046 -0.290915,-0.08506 1.200396,0.924575 2.387616,1.878142 3.661052,2.680839 0.178077,0.112252 0.412335,0.01002 0.61846,0.0167 0.869271,0.0284 1.737614,0.0734 2.606145,0.120402 1.246095,0.08561 2.493752,0.119338 3.741968,0.133991 1.121443,0.0038 2.242866,-0.0075 3.364331,-9.03e-4 1.123512,0.07269 2.247659,0.100573 3.372987,0.108096 1.975333,0.0404 3.947111,-0.06997 5.915963,-0.230189 1.505603,-0.12978 3.013033,-0.241916 4.523408,-0.274752 1.844139,-0.01169 -1.715677,-1.614077 -3.275488,-2.648847 -0.09427,-0.06252 -0.22064,0.01806 -0.331145,0.02349 -0.354011,0.01742 -0.723001,0.02116 -1.076284,0.02773 -1.320506,-0.0022 -2.637804,0.103023 -3.955418,0.182794 -0.642497,0.06074 -1.290125,0.04148 -1.93295,0.08942 -0.08445,0.0063 -1.532649,0.161751 -1.54082,0.162623 -1.786859,0.153512 -3.57415,0.286585 -5.353103,0.528547 -1.403153,0.158112 -2.800553,0.362081 -4.199167,0.559485 -1.208238,0.162674 -2.419718,0.276976 -3.636054,0.333384 -0.453167,0.04033 -0.90132,0.01363 -1.352091,-0.03448 -0.08361,-0.0089 -0.170097,-0.0027 -0.250726,-0.02816 -0.07178,-0.02273 -0.131945,-0.07598 -0.197924,-0.113971 -1.212092,-1.027384 0.08804,0.09061 3.133366,1.889555 0.08118,0.04793 -0.138331,-0.133018 -0.201586,-0.205882 -0.225823,-0.26011 -0.406401,-0.561608 -0.589567,-0.856357 -0.337869,-0.630304 -0.76056,-1.181658 -1.260092,-1.66762 -0.357452,-0.331425 -0.772404,-0.57809 -1.136486,-0.89978 -0.196392,-0.171118 -0.240424,-0.413715 -0.307583,-0.661806 -0.07506,-0.27745 -0.06672,-0.234328 -0.171364,-0.506668 -0.0031,-0.09945 -0.579971,-1.072309 -0.418858,-0.22708 0.305092,0.06117 0.617256,0.06731 0.926634,0.07794 0.363702,0.0074 0.727689,0.01476 1.091411,0.0065 0.51259,0.02191 1.032389,0.05706 1.54121,0.136412 0.465551,0.09079 0.934215,0.136 1.4067,0.144236 0.668963,-0.02026 1.335159,0.03681 2.002982,0.06541 1.409655,0.03354 2.819882,0.02216 4.229485,-0.0065 1.336352,-0.03998 2.673115,-0.05233 4.009879,-0.06091 0.789876,-0.0246 1.570579,-0.156789 2.356886,-0.228436 0.639067,-0.03629 1.277701,-0.09728 1.911837,-0.191488 0.618101,-0.07127 1.233258,-0.159505 1.833403,-0.337369 0.458319,-0.154926 0.932568,-0.217347 1.409963,-0.246546 0.433035,-0.08732 0.871688,-0.123997 1.311037,-0.146 0.547057,-0.01791 1.094482,-0.02119 1.641771,-0.02222 0.551944,-0.04094 1.083852,0.04712 1.608676,0.225101 1.274893,0.65002 3.002245,1.79514 -2.82857,-1.779045 -0.08023,-0.04918 0.158706,0.101683 0.236138,0.155822 0.173326,0.121198 0.288899,0.216554 0.455131,0.348057 0.321982,0.268442 0.608928,0.580377 0.930404,0.849206 0.136895,0.168781 0.339843,0.276847 0.477415,0.443071 0.07474,0.09032 0.09891,0.176991 0.141689,0.28591 0.109333,0.349153 0.07463,0.447709 -0.177708,0.677401 -0.253925,0.195204 -0.522418,0.356244 -0.811558,0.481762 -0.40672,0.238975 -0.814325,0.473293 -1.239286,0.672559 -0.518163,0.18505 -1.058896,0.313062 -1.600686,0.385725 -0.885717,0.09071 -1.776693,0.09034 -2.665557,0.09885 -0.803166,-0.0015 -1.606216,-0.01278 -2.409394,-0.01452 -0.891503,-0.0029 -1.782805,0.01842 -2.674297,0.0183 -1.048816,-0.0262 -2.09476,0.02152 -3.14216,0.07104 -1.01836,0.09981 -2.017814,0.326505 -3.019547,0.537461 -0.676204,0.11739 -1.347511,0.264861 -2.029214,0.340882 -0.574356,0.04173 -1.13825,0.172639 -1.708541,0.251944 -0.109301,0.02002 -0.218603,0.04001 -0.327894,0.06003 0,0 3.356235,2.549276 3.356235,2.549276 v 0 c 0.111074,-0.01616 0.222149,-0.03233 0.333224,-0.04848 0.570418,-0.09052 1.140636,-0.180319 1.714463,-0.242523 0.667632,-0.111319 1.328994,-0.260349 1.989775,-0.411243 0.980631,-0.230073 1.971703,-0.413837 2.974112,-0.48771 1.040412,-0.05301 2.080962,-0.07778 3.122715,-0.06166 0.908076,1.96e-4 1.815942,0.02171 2.72403,0.02129 0.791384,3e-4 1.582644,-0.0072 2.373976,-0.01817 0.915245,-0.0069 1.832548,-0.01423 2.744435,-0.10715 0.572698,-0.09116 1.140678,-0.240606 1.677579,-0.477869 0.432414,-0.205592 0.847736,-0.449907 1.282155,-0.650907 0.30884,-0.169737 0.602689,-0.362892 0.86905,-0.604491 0.320652,-0.327059 0.503394,-0.626785 0.406993,-1.120711 -0.03695,-0.18898 -0.06703,-0.42926 -0.159064,-0.598536 -0.08731,-0.160748 -0.27639,-0.208275 -0.368315,-0.365375 -0.183693,-0.186948 -0.394612,-0.335581 -0.582791,-0.518118 -0.05912,-0.05734 -0.11137,-0.122637 -0.17112,-0.1792 -0.06609,-0.06255 -0.137286,-0.118491 -0.205924,-0.177735 -0.198408,-0.191533 -0.438811,-0.422078 -0.669132,-0.566995 -1.32324,-0.832557 -2.736992,-2.042969 -4.303897,-2.53234 -0.546476,-0.118221 -1.096804,-0.143797 -1.653711,-0.121388 -0.55756,9.04e-4 -1.115342,-0.0035 -1.672395,0.02707 -0.444015,0.02936 -0.882551,0.101727 -1.324508,0.152976 -0.484362,0.05955 -0.95975,0.167265 -1.426324,0.320908 -0.59094,0.142842 -1.191275,0.224819 -1.792338,0.30103 -0.632691,0.07116 -1.266753,0.125334 -1.900288,0.186733 -0.768341,0.0888 -1.534254,0.212431 -2.308411,0.225423 -1.295531,0.05003 -2.589973,0.134742 -3.886485,0.153674 -1.448705,0.01357 -2.897736,-0.02544 -4.34397,-0.119817 -0.685715,-0.0503 -1.371209,-0.08362 -2.05816,-0.104242 -0.46099,-0.03682 -0.919066,-0.09984 -1.377754,-0.160967 -0.528794,-0.05227 -1.057883,-0.115362 -1.589623,-0.111672 -0.36349,-0.01002 -0.727329,-0.0063 -1.090471,-0.02982 -0.324716,-0.02132 -0.649886,-0.07454 -0.975215,-0.05608 -0.591668,0.386032 -0.281383,0.626157 0.04877,1.026265 0.122213,0.201882 0.21779,0.400436 0.261737,0.640526 0.0398,0.2176 0.03916,0.436883 0.15195,0.634707 0.304585,0.429081 0.752844,0.675512 1.164862,0.968625 0.521542,0.430849 0.994197,0.925791 1.316284,1.551816 0.181414,0.302508 0.352311,0.607308 0.547332,0.899782 0.05795,0.08693 0.08942,0.20377 0.172999,0.261443 3.329367,2.296805 2.384491,1.91733 3.966692,2.51951 0.606637,0.08133 1.214415,0.06058 1.822276,-0.0053 1.2001,-0.111753 2.398563,-0.245539 3.594345,-0.402314 1.38524,-0.205703 2.772294,-0.390774 4.158431,-0.588512 1.769408,-0.256848 3.547421,-0.400627 5.32897,-0.520817 1.185954,-0.07692 2.375466,-0.05586 3.558559,-0.183167 1.304271,-0.126715 2.612754,-0.204143 3.922926,-0.169091 0.372949,0.007 0.771571,0.01056 1.145502,0.03108 0.12673,0.007 0.477342,0.11762 0.379674,0.03017 -2.601533,-2.329475 -2.045451,-2.852632 -3.411307,-2.578766 -1.433007,0.185318 -2.873773,0.294903 -4.310169,0.44388 -0.923277,0.07476 -1.316147,0.117771 -2.247353,0.147296 -1.257938,0.03988 -2.515085,-0.02568 -3.772696,-0.047 -1.13806,-0.038 -2.274948,-0.109222 -3.41344,-0.129546 -1.123228,0.0082 -2.246412,9.05e-4 -3.369608,-0.0079 -1.212166,-0.0075 -2.424385,-0.02891 -3.63597,-0.07032 -0.888295,-0.03976 -1.77435,-0.08707 -2.659994,-0.174142 -0.234269,-0.02303 -0.862367,-0.264071 -0.701951,-0.07837 2.170153,2.512365 1.727256,2.365743 3.170165,2.692903 0.426492,0.112299 0.849711,0.231423 1.264115,0.38974 1.37029,0.523491 3.504373,2.092743 -2.204399,-1.557381 0.09564,0.04048 0.18706,0.09575 0.28703,0.121433 0.05531,0.0142 0.123543,-0.03855 0.170381,-0.0039 0.02734,0.02022 -0.03041,0.06588 -0.05584,0.08868 -0.163013,0.145708 -0.408726,0.130793 -0.602362,0.147262 C 70.483735,45.221434 69.42241,44.99934 68.407301,44.617211 67.780058,44.35706 67.18061,44.074946 66.58719,43.73376 c -0.153661,-0.08835 -0.607862,-0.366623 -0.457929,-0.271113 3.277113,2.087554 4.280188,1.34299 2.967112,2.181681 -0.04866,0.05791 -0.155084,0.09614 -0.146058,0.17374 0.0074,0.05984 0.111665,0.0053 0.167394,0.0098 0.461359,0.03735 0.924892,0.108248 1.382567,-0.01185 0.0949,-0.03792 0.192782,-0.06803 0.284665,-0.113757 0.430451,-0.21423 0.741391,-0.639289 1.178122,-0.844693 0.629513,-0.301063 1.288215,-0.477179 1.973212,-0.562154 0.873947,-0.102064 1.752255,-0.148016 2.625168,-0.261042 1.295646,-0.161934 2.590384,-0.33484 3.888618,-0.470267 0.981338,-0.06714 1.963141,-0.12332 2.944722,-0.18607 0.400744,-0.02563 1.728155,-0.110032 2.15397,-0.159128 0.255382,-0.02945 0.508093,-0.08149 0.762144,-0.122229 0.718536,-0.159611 1.419358,-0.355747 2.12644,-0.566474 0.434017,-0.129347 0.863781,-0.276109 1.301125,-0.391679 0.198355,-0.05242 0.399741,-0.0904 0.599606,-0.13559 0.18327,-0.02623 0.365707,-0.06046 0.549801,-0.07869 0.943821,-0.09343 1.896076,-0.0078 2.840826,0.0033 0.826739,0.0421 1.673515,0.05687 2.492146,0.200624 1.492028,0.262006 2.496876,1.719056 -2.813526,-2.397793 0.09976,0.130837 0.04465,0.04464 -0.363248,0.141421 -0.224874,0.05336 -0.451975,0.09611 -0.67973,0.132579 -0.692271,0.110852 -1.365847,0.18244 -2.067345,0.205299 -0.408619,0.01332 -0.817607,-0.0022 -1.226416,-0.0029 -0.952097,-0.0557 -1.403713,-0.05048 -2.32848,-0.221559 -0.258432,-0.04781 -0.953394,-0.392697 -0.765553,-0.195231 2.785953,2.928651 1.919933,2.517027 3.911092,2.572373 1.276476,0.0763 2.550048,0.203133 3.810974,0.437266 0.652695,0.09772 1.369985,0.266511 2.003299,-0.02352 0.185846,-0.08511 0.329698,-0.227111 0.48567,-0.359844 0.368294,-0.454214 0.719844,-1.006935 0.617974,-1.641018 -1.242145,-0.745333 -2.471012,-1.517027 -3.726417,-2.235997 -0.05025,-0.02876 -0.113703,0.0032 -0.170549,0.0042 -0.318331,0.0059 -0.636724,0.0082 -0.955064,0.01366 -0.867497,0.01863 -1.734943,0.04666 -2.602155,0.07569 -1.085056,0.05318 -2.168105,0.13866 -3.250828,0.231352 -1.191338,0.126221 -2.3818,0.263118 -3.575376,0.363651 -1.145871,0.084 -2.292998,0.116848 -3.440094,0.174805 -1.291476,0.09333 -2.576197,0.245749 -3.856991,0.449265 -0.508979,0.06716 -0.92504,0.129237 -1.437398,0.16771 -0.847377,0.06363 -1.696358,0.03275 -2.544591,0.05835 -1.043969,0.03754 -2.085416,0.116188 -3.122799,0.251363 -0.560199,0.06715 -1.61747,0.11761 -2.05268,0.553266 -0.06978,0.06979 -0.121337,0.158061 -0.181994,0.237093 -0.03008,0.09483 -0.08318,0.184545 -0.09026,0.284493 -0.0043,0.0574 0.0133,0.130371 0.05869,0.16069 1.877191,1.255071 2.682363,2.070748 4.369031,2.566441 0.689432,0.216365 1.372254,0.457599 2.06727,0.652648 0.585049,0.125304 1.175545,0.213881 1.768892,0.279554 0.793856,0.07745 1.590108,0.101106 2.385621,0.151396 0.781748,0.04969 1.562514,0.07012 2.345781,0.04984 1.042935,-0.02535 2.086029,-0.04857 3.127603,-0.115693 1.584713,-0.09173 3.169501,-0.181268 4.754362,-0.269434 1.272802,-0.06732 2.545403,-0.08925 3.8196,-0.05644 0.824099,0.0049 1.648252,0.006 2.472257,0.02107 0.601148,0.0022 1.201568,-0.02442 1.797638,-0.115446 0.842225,-0.128428 1.687575,-0.318124 2.444684,-0.754453 0.08551,-0.08668 0.190755,-0.155212 0.256574,-0.260035 0.07084,-0.112766 0.247687,-0.300292 0.144001,-0.377962 -2.458904,-1.841854 -2.532007,-2.306138 -4.346735,-2.290935 -0.532563,-0.01191 -1.065495,-0.03248 -1.596083,-0.08548 -0.780101,-0.08306 -1.555399,-0.217528 -2.340029,-0.249263 -1.390843,-0.07159 -2.78249,-0.04161 -4.174432,-0.04481 -1.570061,0.0027 -3.139965,0.02915 -4.709107,0.08933 -2.670223,0.15212 -5.346294,0.297375 -8.020171,0.166358 -0.504471,-0.04629 -1.009872,-0.08194 -1.513404,-0.138858 -1.349696,-0.15255 -2.673875,-0.459233 -3.995343,-0.782356 z" /><text
       xml:space="preserve"
       transform="scale(0.26458333)"
       id="text1"
       style="font-style:normal;font-variant:normal;font-weight:normal;font-stretch:normal;font-size:96px;font-family:'Matura MT Script Capitals';-inkscape-font-specification:'Matura MT Script Capitals';writing-mode:lr-tb;direction:ltr;white-space:pre;shape-inside:url(#rect1);fill:#000000" /><text
       xml:space="preserve"
       style="font-style:normal;font-variant:normal;font-weight:normal;font-stretch:normal;font-size:25.4px;font-family:'Freestyle Script';-inkscape-font-specification:'Freestyle Script';writing-mode:lr-tb;direction:ltr;fill:#000000;stroke-width:0.264583"
       x="139.57178"
       y="71.425766"
       id="text2"><tspan
         sodipodi:role="line"
         id="tspan2"
         x="139.57178"
         y="71.425766"
         style="font-style:normal;font-variant:normal;font-weight:normal;font-stretch:normal;font-family:'Freestyle Script';-inkscape-font-specification:'Freestyle Script';stroke-width:0.264583" /></text><text
       xml:space="preserve"
       style="font-style:normal;font-variant:normal;font-weight:normal;font-stretch:normal;font-size:19.7556px;font-family:'Freestyle Script';-inkscape-font-specification:'Freestyle Script';writing-mode:lr-tb;direction:ltr;white-space:pre;inline-size:103.556;fill:#000000;stroke-width:0.264583"
       x="33.526382"
       y="56.849075"
       id="text3"
       transform="matrix(1.3759647,0,0,1.5862082,-33.836936,-56.559996)"><tspan
         x="33.526382"
         y="56.849075"
         id="tspan1">Mala Vision</tspan></text><text
       xml:space="preserve"
       style="font-style:normal;font-variant:normal;font-weight:normal;font-stretch:normal;font-size:4.23333px;font-family:'Eras Medium ITC';-inkscape-font-specification:'Eras Medium ITC';writing-mode:lr-tb;direction:ltr;white-space:pre;inline-size:12.8275;fill:#e6e6e6;stroke-width:0.264583"
       x="99.078674"
       y="42.002144"
       id="text8"
       transform="matrix(1.7756527,0,0,1.4423751,-105.63523,-15.766321)"><tspan
         x="99.078674"
         y="42.002144"
         id="tspan3">ARTIST</tspan></text><g
       id="g10"
       transform="matrix(0.02940509,0,0,0.02739196,51.854162,37.815072)">
	<g
   id="g8">
		<path
   style="fill:#cf485e"
   d="m 398.231,142.224 c 0,78.545 -63.68,142.218 -142.231,142.218 -78.545,0 -142.221,-63.673 -142.221,-142.218 C 113.779,63.679 177.455,0 256,0 334.551,0 398.231,63.68 398.231,142.224 Z"
   id="path1" />
		<path
   style="fill:#da5a69"
   d="M 398.231,369.77 C 398.231,448.321 334.551,512 256,512 177.455,512 113.779,448.321 113.779,369.77 c 0,-78.539 63.676,-142.212 142.221,-142.212 78.551,0 142.231,63.673 142.231,142.212 z"
   id="path2" />
		<path
   style="fill:#cf485e"
   d="m 142.221,113.77 c 78.548,0 142.221,63.673 142.221,142.224 0,78.545 -63.673,142.224 -142.221,142.224 C 63.68,398.219 0,334.539 0,255.994 0,177.443 63.68,113.77 142.221,113.77 Z"
   id="path3" />
		<path
   style="fill:#da5a69"
   d="m 369.769,113.77 c 78.551,0 142.231,63.673 142.231,142.224 0,78.545 -63.68,142.224 -142.231,142.224 -78.538,0 -142.211,-63.68 -142.211,-142.224 0,-78.551 63.673,-142.224 142.211,-142.224 z"
   id="path4" />
		<path
   style="fill:#c04d65"
   d="m 410.103,392.397 c 2.263,-13.154 2.609,-26.852 0.904,-40.808 -9.488,-77.404 -79.462,-132.57 -156.763,-123.987 0.596,0 1.154,-0.045 1.757,-0.045 78.564,0 142.205,63.699 142.205,142.205 0,8.878 -0.801,17.564 -2.359,26 z"
   id="path5" />
		<path
   style="fill:#b3445b"
   d="m 395.744,116.116 c -8.378,-1.551 -17.064,-2.353 -25.949,-2.353 -78.564,0 -142.256,63.692 -142.256,142.257 0,0.545 0.051,1.147 0.051,1.75 -8.539,-77.302 46.635,-147.327 123.981,-156.808 13.961,-1.705 27.66,-1.359 40.808,0.904 z"
   id="path6" />
		<path
   style="fill:#b3445b"
   d="m 116.15,116.225 c -1.554,8.423 -2.356,17.115 -2.356,26 0,78.551 63.642,142.205 142.206,142.205 0.603,0 1.16,0 1.756,0 -77.302,8.532 -147.276,-46.635 -156.763,-124.039 -1.708,-13.955 -1.355,-27.654 0.901,-40.808 z"
   id="path7" />
		<path
   style="fill:#c04d65"
   d="m 119.618,410.116 c 13.154,2.263 26.85,2.609 40.805,0.903 77.352,-9.487 132.525,-79.512 123.987,-156.763 0,0.551 0.051,1.154 0.051,1.763 0,78.499 -63.692,142.205 -142.256,142.205 -8.891,0 -17.568,-0.807 -25.949,-2.358 z"
   id="path8" />
	</g>
	<path
   style="fill:#dfd6ac"
   d="m 329.621,256.007 c 0,40.654 -32.967,73.616 -73.621,73.616 -40.66,0 -73.622,-32.962 -73.622,-73.616 0,-40.66 32.962,-73.628 73.622,-73.628 40.654,-0.001 73.621,32.967 73.621,73.628 z"
   id="path9" />
	<path
   style="fill:#d4c790"
   d="m 303.673,199.962 c 10.942,12.847 17.577,29.475 17.577,47.68 0,40.654 -32.962,73.615 -73.615,73.615 -18.199,0 -34.834,-6.634 -47.68,-17.577 13.506,15.852 33.583,25.943 56.045,25.943 40.654,0 73.621,-32.962 73.621,-73.616 0,-22.462 -10.089,-42.539 -25.948,-56.045 z"
   id="path10" />
</g></g></svg>
